<?xml version="1.0" encoding="UTF-8" standalone="no"?>
<svg width="21px" height="14px" viewBox="0 0 21 14" version="1.1" xmlns="http://www.w3.org/2000/svg" xmlns:xlink="http://www.w3.org/1999/xlink">
    <!-- Generator: Sketch 40.1 (33804) - http://www.bohemiancoding.com/sketch -->
    <title>noun_129826_cc copy</title>
    <desc>Created with Sketch.</desc>
    <defs></defs>
    <g id="Page-1" stroke="none" stroke-width="1" fill="none" fill-rule="evenodd">
        <g id="Desktop-Copy" transform="translate(-602.000000, -521.000000)" fill="#5D4EF0">
            <g id="noun_129826_cc-copy" transform="translate(602.000000, 521.000000)">
                <g id="Group">
                    <path d="M8.16526667,10.3782903 C7.17663333,10.3782903 6.37536667,11.1541613 6.37536667,12.1104516 C6.37536667,13.0658387 7.1757,13.8410323 8.16526667,13.8410323 C9.15413333,13.8410323 9.95516667,13.0658387 9.95516667,12.1104516 C9.95516667,11.1539355 9.15343333,10.3782903 8.16526667,10.3782903 L8.16526667,10.3782903 Z" id="Shape"></path>
                    <path d="M17.3646667,10.3782903 C16.3765,10.3782903 15.5731333,11.1541613 15.5747667,12.1104516 C15.5747667,13.0658387 16.3765,13.8410323 17.3646667,13.8410323 C18.3544667,13.8410323 19.1543333,13.0658387 19.1543333,12.1104516 C19.1543333,11.1539355 18.3528333,10.3782903 17.3646667,10.3782903 L17.3646667,10.3782903 Z" id="Shape"></path>
                    <path d="M6.9419,9.53964516 C6.57346667,9.53964516 6.2377,9.32919355 6.08813333,9.00087097 L3.62693333,3.60183871 L2.18633333,1.82948387 L0.933333333,1.82948387 C0.4179,1.82948387 0,1.42506452 0,0.926258065 C0,0.427451613 0.4179,0.0230322581 0.933333333,0.0230322581 L2.63946667,0.0230322581 C2.92576667,0.0230322581 3.1962,0.149935484 3.37306667,0.36783871 L5.16273333,2.56922581 L20.0235,1.98032258 C20.3275333,1.96903226 20.6222333,2.10225806 20.8068,2.33890323 C20.9911333,2.57554839 21.0441,2.88467742 20.9477333,3.16603226 L19.1249333,8.50770968 C19.0029,8.86606452 18.6634,9.11309677 18.2739667,9.12709677 L6.9769,9.53874194 C6.96546667,9.53941935 6.9538,9.53964516 6.9419,9.53964516 L6.9419,9.53964516 Z" id="Shape"></path>
                </g>
            </g>
        </g>
    </g>
</svg>